<?xml version="1.0" encoding="UTF-8"?><svg xmlns="http://www.w3.org/2000/svg" xmlns:xlink="http://www.w3.org/1999/xlink" contentScriptType="text/ecmascript" width="375" zoomAndPan="magnify" contentStyleType="text/css" viewBox="0 0 375 374.999991" height="374.999991" preserveAspectRatio="xMidYMid meet" version="1.0"><defs><clipPath id="clip-0"><path d="M 136.90625 131.246094 L 238.15625 131.246094 L 238.15625 259.496094 L 136.90625 259.496094 Z M 136.90625 131.246094 " clip-rule="nonzero"/></clipPath></defs><rect x="-37.5" width="450" fill="rgb(100%, 100%, 100%)" y="-37.499999" height="449.999989" fill-opacity="1"/><rect x="-37.5" width="450" fill="rgb(100%, 100%, 100%)" y="-37.499999" height="449.999989" fill-opacity="1"/><g clip-path="url(#clip-0)"><path fill="rgb(98.429871%, 54.899597%, 0%)" d="M 161.28125 131.246094 L 136.910156 217.492188 L 162.308594 217.601562 L 153.351562 259.5 L 193.703125 198.992188 L 166.128906 199.050781 L 178.128906 159.898438 L 207.859375 159.792969 C 208.328125 159.792969 208.773438 159.882812 209.203125 160.058594 C 209.632812 160.238281 210.015625 160.492188 210.34375 160.820312 C 210.671875 161.152344 210.925781 161.53125 211.105469 161.960938 C 211.28125 162.390625 211.371094 162.839844 211.371094 163.304688 C 211.371094 163.773438 211.28125 164.226562 211.101562 164.65625 C 210.921875 165.089844 210.664062 165.472656 210.332031 165.800781 C 210 166.128906 209.617188 166.382812 209.183594 166.558594 C 208.75 166.738281 208.300781 166.824219 207.832031 166.820312 L 183.695312 166.832031 L 175.832031 192.375 L 207.632812 192.375 C 224.582031 192.375 238.296875 178.539062 238.160156 161.5625 C 238.015625 144.78125 224.386719 131.246094 207.621094 131.246094 Z M 161.28125 131.246094 " fill-opacity="1" fill-rule="nonzero"/></g></svg>