<?xml version="1.0" encoding="UTF-8"?><svg xmlns="http://www.w3.org/2000/svg" xmlns:xlink="http://www.w3.org/1999/xlink" contentScriptType="text/ecmascript" width="375" zoomAndPan="magnify" contentStyleType="text/css" viewBox="0 0 375 374.999991" height="374.999991" preserveAspectRatio="xMidYMid meet" version="1.0"><defs><clipPath id="clip-0"><path d="M 140.136719 158.742188 L 234.636719 158.742188 L 234.636719 216.265625 L 140.136719 216.265625 Z M 140.136719 158.742188 " clip-rule="nonzero"/></clipPath></defs><rect x="-37.5" width="450" fill="rgb(100%, 100%, 100%)" y="-37.499999" height="449.999989" fill-opacity="1"/><rect x="-37.5" width="450" fill="rgb(9.799194%, 46.269226%, 82.348633%)" y="-37.499999" height="449.999989" fill-opacity="1"/><g clip-path="url(#clip-0)"><path fill="rgb(98.429871%, 54.899597%, 0%)" d="M 231.859375 180.460938 C 231.859375 180.460938 227.832031 180.460938 225.601562 180.460938 C 223.132812 172.648438 216.851562 166.847656 208.878906 164.996094 C 208.878906 163.296875 208.878906 161.300781 208.878906 161.300781 C 208.878906 159.769531 207.636719 158.527344 206.101562 158.527344 L 198.476562 158.527344 C 196.941406 158.527344 195.699219 159.769531 195.699219 161.300781 L 195.699219 171.417969 L 187.285156 171.417969 C 185.753906 171.417969 184.511719 172.65625 184.511719 174.191406 C 184.511719 175.722656 185.753906 176.964844 187.285156 176.964844 L 195.699219 176.964844 L 195.699219 197.246094 L 187.285156 197.246094 C 185.753906 197.246094 184.511719 198.488281 184.511719 200.019531 C 184.511719 201.554688 185.753906 202.796875 187.285156 202.796875 L 195.699219 202.796875 L 195.699219 213.484375 C 195.699219 215.011719 196.941406 216.253906 198.476562 216.253906 L 206.101562 216.253906 C 207.636719 216.253906 208.878906 215.011719 208.878906 213.484375 C 208.878906 213.484375 208.878906 211.492188 208.878906 209.796875 C 216.851562 207.933594 223.132812 202.136719 225.601562 194.328125 C 227.832031 194.328125 231.859375 194.328125 231.859375 194.328125 C 233.390625 194.328125 234.636719 193.09375 234.636719 191.550781 L 234.636719 183.234375 C 234.636719 181.699219 233.390625 180.460938 231.859375 180.460938 Z M 176.304688 158.523438 L 168.683594 158.523438 C 167.148438 158.523438 165.90625 159.765625 165.90625 161.296875 C 165.90625 161.296875 165.90625 163.292969 165.90625 164.988281 C 157.933594 166.847656 151.644531 172.636719 149.171875 180.453125 C 146.945312 180.453125 142.917969 180.453125 142.917969 180.453125 C 141.382812 180.453125 140.136719 181.699219 140.136719 183.234375 L 140.136719 191.550781 C 140.136719 193.09375 141.382812 194.328125 142.917969 194.328125 C 142.917969 194.328125 146.945312 194.328125 149.164062 194.328125 C 151.644531 202.136719 157.933594 207.933594 165.90625 209.785156 C 165.90625 211.488281 165.90625 213.484375 165.90625 213.484375 C 165.90625 215.011719 167.148438 216.257812 168.683594 216.257812 L 176.304688 216.257812 C 177.835938 216.257812 179.085938 215.011719 179.085938 213.484375 L 179.085938 202.726562 L 170.148438 202.726562 C 168.617188 202.726562 167.375 201.480469 167.375 199.953125 C 167.375 198.417969 168.617188 197.175781 170.148438 197.175781 L 179.085938 197.175781 L 179.085938 176.871094 L 170.148438 176.871094 C 168.617188 176.871094 167.375 175.632812 167.375 174.097656 C 167.375 172.570312 168.617188 171.324219 170.148438 171.324219 L 179.085938 171.324219 L 179.085938 161.296875 C 179.085938 159.765625 177.835938 158.523438 176.304688 158.523438 Z M 176.304688 158.523438 " fill-opacity="1" fill-rule="nonzero"/></g></svg>